<?xml version="1.0" encoding="UTF-8"?>
<svg xmlns="http://www.w3.org/2000/svg" xmlns:xlink="http://www.w3.org/1999/xlink" width="422px" height="464px" viewBox="0 0 422 464" version="1.1">
<g id="surface1">
<path style=" stroke:none;fill-rule:nonzero;fill:rgb(21.176471%,23.921569%,32.156863%);fill-opacity:1;" d="M 52.75 0 C 23.539062 0 0 25.847656 0 57.964844 L 0 405.890625 C 0 438.007812 23.507812 463.855469 52.75 463.855469 L 369.25 463.855469 C 398.460938 463.855469 422 438.007812 422 405.890625 L 422 57.964844 C 422 25.882812 398.460938 0 369.25 0 Z M 52.75 0 "/>
<path style=" stroke:none;fill-rule:nonzero;fill:rgb(0%,0%,0%);fill-opacity:0.4;" d="M 52.75 0 C 23.539062 0 0 25.847656 0 57.964844 L 0 405.890625 C 0 438.007812 23.507812 463.855469 52.75 463.855469 L 369.25 463.855469 C 398.460938 463.855469 422 438.007812 422 405.890625 L 422 57.964844 C 422 25.882812 398.460938 0 369.25 0 Z M 52.75 14.5 L 369.25 14.5 C 391.140625 14.5 408.8125 33.894531 408.8125 57.964844 L 408.8125 405.890625 C 408.8125 429.960938 391.175781 449.355469 369.25 449.355469 L 52.75 449.355469 C 30.859375 449.355469 13.1875 429.960938 13.1875 405.890625 L 13.1875 57.964844 C 13.1875 33.894531 30.859375 14.5 52.75 14.5 Z M 52.75 14.5 "/>
<path style=" stroke:none;fill-rule:nonzero;fill:rgb(100%,100%,100%);fill-opacity:1;" d="M 346.242188 289.953125 C 346.242188 289.953125 345.792969 286.921875 345.53125 286.949219 L 295.515625 292.257812 C 291.535156 292.679688 288.441406 296.167969 288.164062 300.554688 L 286.789062 322.210938 L 248.09375 325.246094 L 245.460938 305.621094 C 244.875 301.253906 241.410156 297.964844 237.394531 297.964844 L 184.605469 297.964844 C 180.59375 297.964844 177.125 301.253906 176.539062 305.621094 L 173.90625 325.246094 L 135.210938 322.210938 L 133.835938 300.554688 C 133.558594 296.167969 130.464844 292.679688 126.488281 292.253906 L 76.445312 286.949219 C 76.183594 286.921875 75.996094 289.957031 75.738281 289.957031 L 75.667969 301.859375 L 118.050781 309.375 L 119.4375 331.222656 C 119.71875 335.644531 122.964844 339.222656 126.992188 339.539062 L 180.285156 343.71875 C 180.484375 343.734375 180.683594 343.742188 180.882812 343.742188 C 184.886719 343.742188 188.351562 340.449219 188.9375 336.085938 L 191.644531 315.890625 L 230.359375 315.890625 L 233.066406 336.085938 C 233.652344 340.449219 237.117188 343.742188 241.125 343.742188 C 241.324219 343.742188 241.519531 343.734375 241.710938 343.71875 L 295.011719 339.539062 C 299.035156 339.222656 302.28125 335.644531 302.5625 331.222656 L 303.949219 309.375 L 346.3125 301.824219 Z M 346.242188 289.953125 "/>
<path style=" stroke:none;fill-rule:nonzero;fill:rgb(27.843137%,54.901961%,74.901961%);fill-opacity:1;" d="M 75.738281 200.214844 L 75.738281 289.953125 C 75.886719 289.957031 76.035156 289.960938 76.183594 289.976562 L 126.21875 295.28125 C 128.839844 295.558594 130.894531 297.878906 131.078125 300.769531 L 132.621094 325.054688 L 176.269531 328.476562 L 179.273438 306.0625 C 179.664062 303.15625 181.933594 301.003906 184.605469 301.003906 L 237.394531 301.003906 C 240.070312 301.003906 242.335938 303.15625 242.726562 306.0625 L 245.730469 328.476562 L 289.382812 325.054688 L 290.921875 300.769531 C 291.105469 297.878906 293.160156 295.5625 295.78125 295.28125 L 345.796875 289.976562 C 345.945312 289.960938 346.09375 289.957031 346.242188 289.953125 L 346.242188 282.792969 L 346.261719 282.785156 L 346.261719 200.214844 C 353.308594 190.460938 359.980469 179.703125 365.09375 170.652344 C 357.28125 156.03125 347.710938 142.960938 337.480469 130.855469 C 327.988281 136.105469 318.773438 142.054688 310.070312 148.386719 C 305.710938 143.625 300.804688 139.734375 295.988281 135.660156 C 291.253906 131.480469 285.917969 128.414062 280.855469 124.84375 C 282.363281 112.503906 283.109375 100.359375 283.40625 87.683594 C 270.351562 80.457031 256.425781 75.664062 242.339844 72.222656 C 236.714844 82.617188 231.574219 93.871094 227.09375 104.871094 C 221.785156 103.894531 216.449219 103.535156 211.105469 103.464844 L 211.105469 103.457031 C 211.066406 103.457031 211.03125 103.464844 211 103.464844 C 210.96875 103.464844 210.933594 103.457031 210.898438 103.457031 L 210.898438 103.464844 C 205.546875 103.535156 200.214844 103.894531 194.902344 104.871094 C 190.425781 93.871094 185.289062 82.617188 179.65625 72.222656 C 165.578125 75.664062 151.652344 80.457031 138.59375 87.683594 C 138.894531 100.359375 139.636719 112.503906 141.148438 124.84375 C 136.078125 128.414062 130.75 131.480469 126.011719 135.660156 C 121.199219 139.734375 116.285156 143.625 111.929688 148.386719 C 103.222656 142.054688 94.011719 136.105469 84.519531 130.855469 C 74.289062 142.960938 64.722656 156.03125 56.90625 170.652344 C 63.050781 181.25 69.636719 191.90625 75.738281 200.214844 Z M 75.738281 200.214844 "/>
<path style=" stroke:none;fill-rule:nonzero;fill:rgb(27.843137%,54.901961%,74.901961%);fill-opacity:1;" d="M 301.355469 306.59375 L 299.804688 331.011719 C 299.617188 333.953125 297.488281 336.296875 294.8125 336.507812 L 241.515625 340.6875 C 241.386719 340.699219 241.253906 340.703125 241.125 340.703125 C 238.476562 340.703125 236.191406 338.566406 235.800781 335.640625 L 232.746094 312.851562 L 189.257812 312.851562 L 186.199219 335.640625 C 185.789062 338.707031 183.296875 340.914062 180.488281 340.6875 L 127.1875 336.507812 C 124.511719 336.296875 122.382812 333.953125 122.195312 331.011719 L 120.648438 306.59375 L 75.65625 301.824219 C 75.675781 307.140625 75.738281 312.964844 75.738281 314.125 C 75.738281 366.375 136.015625 391.488281 210.910156 391.777344 L 211.09375 391.777344 C 285.984375 391.488281 346.242188 366.375 346.242188 314.125 C 346.242188 312.945312 346.308594 307.144531 346.332031 301.824219 Z M 301.355469 306.59375 "/>
<path style=" stroke:none;fill-rule:nonzero;fill:rgb(100%,100%,100%);fill-opacity:1;" d="M 170.222656 236.640625 C 170.222656 254.960938 156.726562 269.800781 140.070312 269.800781 C 123.421875 269.800781 109.917969 254.960938 109.917969 236.640625 C 109.917969 218.335938 123.421875 203.503906 140.070312 203.503906 C 156.726562 203.503906 170.222656 218.335938 170.222656 236.640625 "/>
<path style=" stroke:none;fill-rule:nonzero;fill:rgb(25.490196%,25.098039%,25.882353%);fill-opacity:1;" d="M 162.96875 238.609375 C 162.96875 250.761719 154.011719 260.609375 142.953125 260.609375 C 131.898438 260.609375 122.9375 250.761719 122.9375 238.609375 C 122.9375 226.457031 131.898438 216.601562 142.953125 216.601562 C 154.011719 216.601562 162.96875 226.457031 162.96875 238.609375 "/>
<path style=" stroke:none;fill-rule:nonzero;fill:rgb(100%,100%,100%);fill-opacity:1;" d="M 211 272.816406 C 205.636719 272.816406 201.292969 268.472656 201.292969 263.117188 L 201.292969 232.597656 C 201.292969 227.246094 205.636719 222.898438 211 222.898438 C 216.359375 222.898438 220.714844 227.246094 220.714844 232.597656 L 220.714844 263.117188 C 220.714844 268.472656 216.359375 272.816406 211 272.816406 "/>
<path style=" stroke:none;fill-rule:nonzero;fill:rgb(100%,100%,100%);fill-opacity:1;" d="M 251.777344 236.640625 C 251.777344 254.960938 265.277344 269.800781 281.933594 269.800781 C 298.578125 269.800781 312.082031 254.960938 312.082031 236.640625 C 312.082031 218.335938 298.578125 203.503906 281.933594 203.503906 C 265.277344 203.503906 251.777344 218.335938 251.777344 236.640625 "/>
<path style=" stroke:none;fill-rule:nonzero;fill:rgb(25.490196%,25.098039%,25.882353%);fill-opacity:1;" d="M 259.035156 238.609375 C 259.035156 250.761719 267.988281 260.609375 279.039062 260.609375 C 290.101562 260.609375 299.054688 250.761719 299.054688 238.609375 C 299.054688 226.457031 290.101562 216.601562 279.039062 216.601562 C 267.988281 216.601562 259.035156 226.457031 259.035156 238.609375 "/>
</g>
</svg>
